<svg viewBox="0 0 512 512" xml:space="preserve" xmlns="http://www.w3.org/2000/svg" enable-background="new 0 0 512 512"><path d="M484.962 378.791c-4.681 10.922-24.471 18.947-60.519 24.544-1.854 2.503-3.391 13.192-5.845 21.521-1.46 5.001-5.052 7.968-10.897 7.968l-.267-.002c-8.44 0-17.253-3.885-34.904-3.885-23.829 0-32.041 5.43-50.541 18.495-19.615 13.87-38.426 25.843-66.508 24.617-28.431 2.097-52.131-15.19-65.47-24.621-18.61-13.157-26.799-18.49-50.528-18.49-16.948 0-27.615 4.239-34.906 4.239-7.253 0-10.074-4.422-11.16-8.121-2.429-8.254-3.958-19.104-5.861-21.68-18.579-2.882-60.473-10.192-61.541-28.885a9.548 9.548 0 0 1 7.976-9.944c62.517-10.292 90.674-74.481 91.845-77.206.067-.158.139-.309.212-.463 3.336-6.77 4.082-12.442 2.213-16.849-4.537-10.688-24.143-14.521-32.39-17.785-21.307-8.415-24.273-18.084-23.012-24.71 2.189-11.532 19.518-18.629 29.651-13.884 8.013 3.755 15.132 5.658 21.155 5.658 4.511 0 7.377-1.083 8.947-1.951-1.835-32.286-6.379-78.423 5.11-104.189 30.342-68.027 94.655-73.314 113.631-73.314.848 0 8.211-.079 9.083-.079 46.851 0 91.869 24.059 113.852 73.35 11.479 25.739 6.963 71.687 5.117 104.225 1.421.784 3.914 1.745 7.727 1.923 5.745-.257 12.409-2.147 19.826-5.622 5.469-2.557 12.942-2.211 18.399.052l.027.009c8.514 3.042 13.869 9.177 14.005 16.055.165 8.758-7.657 16.32-23.25 22.477-1.902.751-4.218 1.488-6.678 2.27-8.803 2.79-22.103 7.011-25.711 15.517-1.867 4.406-1.128 10.072 2.211 16.843.077.153.149.309.214.463 1.169 2.724 29.303 66.898 91.848 77.206 5.774.95 10.029 7.077 6.939 14.248z" fill="#ffffff" class="fill-fffd01"></path></svg>